<svg xmlns="http://www.w3.org/2000/svg" width="160" height="80" fill="none" viewBox="0 0 160 80"><path fill="#a3b8d4" d="m58.384 43.139 2.292 2.321a6.6 6.6 0 0 1-2.218 1.321 7.8 7.8 0 0 1-2.7.431 8 8 0 0 1-2.873-.527 7 7 0 0 1-2.248-1.403 6.2 6.2 0 0 1-1.46-2.073 6.4 6.4 0 0 1 0-5.054 6.3 6.3 0 0 1 1.453-2.084 6.9 6.9 0 0 1 2.243-1.416 7.7 7.7 0 0 1 2.884-.52 8 8 0 0 1 2.99.56c.244.1.459.257.626.455a1.52 1.52 0 0 1 .303 1.437 1.6 1.6 0 0 1-.393.655 1.7 1.7 0 0 1-.877.456c-.334.062-.68.026-.992-.106q-.082-.033-.175-.064a4.4 4.4 0 0 0-1.46-.23 3.5 3.5 0 0 0-1.27.23 3.08 3.08 0 0 0-1.773 1.722 3.6 3.6 0 0 0-.267 1.422c-.008.484.083.965.267 1.415.163.4.41.764.726 1.068.299.292.657.521 1.052.674.404.155.835.233 1.27.231q1.685-.004 2.6-.922m2.168-2.446a6.3 6.3 0 0 1 .517-2.54 6.3 6.3 0 0 1 1.46-2.078 6.9 6.9 0 0 1 2.25-1.403 7.8 7.8 0 0 1 2.873-.516 7.9 7.9 0 0 1 2.901.516 6.9 6.9 0 0 1 2.257 1.403 6.3 6.3 0 0 1 1.466 2.078 6.4 6.4 0 0 1 0 5.081 6.3 6.3 0 0 1-1.466 2.078 6.9 6.9 0 0 1-2.262 1.398 8 8 0 0 1-2.91.505 7.7 7.7 0 0 1-2.864-.515 7 7 0 0 1-2.238-1.397 6.3 6.3 0 0 1-1.984-4.61m3.808-.011c-.006.473.082.943.26 1.385.16.401.403.768.713 1.078.302.297.662.533 1.061.692.41.164.85.246 1.294.243.448.004.892-.079 1.307-.243.396-.156.754-.39 1.052-.685.304-.31.542-.675.701-1.074.178-.445.267-.92.26-1.396a3.6 3.6 0 0 0-.26-1.38 3.2 3.2 0 0 0-.701-1.067 3.2 3.2 0 0 0-1.052-.686 3.5 3.5 0 0 0-1.302-.242 3.4 3.4 0 0 0-1.294.242 3.2 3.2 0 0 0-1.052.686c-.304.308-.543.67-.7 1.067a3.5 3.5 0 0 0-.287 1.38m25.164-.438v6.584h-3.833v-6.502a4.8 4.8 0 0 0-.186-1.432 2.34 2.34 0 0 0-.517-.93 1.9 1.9 0 0 0-.794-.505 3.2 3.2 0 0 0-1.018-.154c-.437-.006-.87.08-1.269.255-.37.163-.7.4-.968.694a3 3 0 0 0-.61 1.061 4.1 4.1 0 0 0-.208 1.338v6.17h-3.81V34.546h3.07l.233.935a7.7 7.7 0 0 1 1.886-.935q.537-.18 1.096-.285.563-.105 1.134-.106a7.4 7.4 0 0 1 2.63.42c.695.256 1.313.67 1.802 1.208a4.9 4.9 0 0 1 1.034 1.914c.232.83.342 1.687.328 2.546m9.952-5.697h4.092l-5.361 12.28h-3.414l-5.35-12.28h4.08l2.958 7.378h.025zm3.641 6.146a6.7 6.7 0 0 1 .482-2.54 6.27 6.27 0 0 1 3.524-3.512 7.5 7.5 0 0 1 2.848-.52q.606-.003 1.201.106.554.1 1.078.296.486.18.937.432a6 6 0 0 1 .777.515l.168-.923h3.24v12.28h-3.24l-.175-.923a7 7 0 0 1-1.72.954 6.1 6.1 0 0 1-2.26.396 7.4 7.4 0 0 1-2.836-.52 6.6 6.6 0 0 1-2.169-1.404 6.1 6.1 0 0 1-1.373-2.084 6.8 6.8 0 0 1-.482-2.553m3.808-.011c-.006.48.086.957.272 1.403.169.404.418.772.733 1.083.309.3.679.538 1.086.7.849.33 1.799.33 2.649 0a3.2 3.2 0 0 0 1.811-1.783c.183-.447.273-.924.267-1.404a3.5 3.5 0 0 0-.272-1.385 3.3 3.3 0 0 0-.733-1.078 3.3 3.3 0 0 0-1.086-.699 3.7 3.7 0 0 0-2.661 0 3.2 3.2 0 0 0-1.079.7 3.3 3.3 0 0 0-.72 1.077 3.5 3.5 0 0 0-.267 1.386m14.444-8.371.442-1.152 2.737-.024v3.412h3.71v3.139h-3.71v4.31c-.009.32.038.638.142.942.077.223.208.426.382.59.161.148.358.253.573.304q.352.086.714.083h2.132l-.024 2.995h-2.478c-.68.004-1.359-.058-2.027-.183a4.06 4.06 0 0 1-1.669-.71 3.54 3.54 0 0 1-1.13-1.48q-.413-.954-.411-2.506v-4.345h-2.034v-2.802a4.6 4.6 0 0 0 1.615-1.01c.457-.444.81-.977 1.036-1.563m16.177 9.91h-4.412a3.2 3.2 0 0 0 1.257 1.397 3.5 3.5 0 0 0 1.848.505q.514.006 1.023-.07a4 4 0 0 0 .764-.196q.316-.114.598-.295.267-.168.537-.374l2.071 2.18q-.391.35-.833.636a7 7 0 0 1-1.133.604q-.685.286-1.412.45a7.5 7.5 0 0 1-1.663.177 7.6 7.6 0 0 1-2.849-.52 6.9 6.9 0 0 1-2.225-1.416 6.5 6.5 0 0 1-1.848-3.36 6.35 6.35 0 0 1 .388-3.782 6.4 6.4 0 0 1 1.455-2.084 7 7 0 0 1 2.23-1.415 7.6 7.6 0 0 1 2.861-.52 9 9 0 0 1 2.477.32 5.8 5.8 0 0 1 1.88.882 4.1 4.1 0 0 1 1.203 1.361c.286.543.431 1.144.424 1.753.003.49-.072.977-.221 1.445a2.9 2.9 0 0 1-.759 1.203c-.407.372-.895.65-1.429.818a7 7 0 0 1-2.232.301m-1.245-5.054a3.44 3.44 0 0 0-1.929.574q-.425.282-.753.664a3.4 3.4 0 0 0-.541.857h3.858c.408.02.814-.066 1.176-.247a.76.76 0 0 0 .41-.475.72.72 0 0 0-.108-.608 1.3 1.3 0 0 0-.419-.38 2.6 2.6 0 0 0-.702-.278 4 4 0 0 0-.992-.11zm16.407 5.972L155 45.46a6.6 6.6 0 0 1-2.218 1.32 7.8 7.8 0 0 1-2.704.437 7.9 7.9 0 0 1-2.872-.527 7 7 0 0 1-2.249-1.404 6.25 6.25 0 0 1-1.461-2.072 6.42 6.42 0 0 1 0-5.054 6.35 6.35 0 0 1 1.455-2.085 6.9 6.9 0 0 1 2.243-1.415 7.7 7.7 0 0 1 2.884-.517 8 8 0 0 1 2.669.438q.161.059.319.121c.244.101.459.258.626.456a1.52 1.52 0 0 1 .303 1.438c-.074.245-.209.47-.393.654a1.7 1.7 0 0 1-.876.456 1.73 1.73 0 0 1-.991-.106l-.175-.064a4.4 4.4 0 0 0-1.461-.23 3.5 3.5 0 0 0-1.27.23 3.2 3.2 0 0 0-1.051.662 3.1 3.1 0 0 0-.721 1.06 3.6 3.6 0 0 0-.265 1.422c-.009.484.081.965.265 1.415a3.15 3.15 0 0 0 1.772 1.734c.405.155.835.233 1.27.23q1.697-.005 2.609-.92"/><path fill="#fff" d="m36.08 32.604-.08-.166c-1.168-2.588-2.84-4.09-4.52-4.09-2.593 0-3.938 1.1-3.938 5.94 0 2.77 1.278 5.868 2.491 8.665 1.098 2.53 2.145 4.816 2.145 6.388 0 1.683-.324 2.263-1.038 2.993a15.4 15.4 0 0 0 2.047-1.911 16.07 16.07 0 0 0 4.03-8.248c.587-3.213.09-6.938-1.137-9.57"/><path fill="#fff" d="M22.633 41.7c4.283 0 7.755-3.35 7.755-7.485s-3.472-7.487-7.755-7.487-7.755 3.352-7.755 7.487S18.35 41.7 22.633 41.7"/><path fill="#fff" d="M19.99 22h-.492a15.7 15.7 0 0 0-5.59 1.092l-.13.051h-.014c-3.686 1.526-5.706 4.312-6.79 6.762-.5 1.08-.86 2.216-1.072 3.382.562-2.504 3.889-3.317 7.532-3.884 4.945-.77 10.477-1.075 10.477-4.49 0-.82-.3-2.913-3.92-2.913"/><path fill="#fff" d="M13.435 29.41a5 5 0 0 1-.306-1.73c0-4.605 4.006-5.473 5.948-5.63.318-.027.632-.045.816-.049h.048-.44c-1.919.02-3.815.391-5.59 1.092l-.13.052h-.014c-3.687 1.525-5.706 4.311-6.79 6.762a14 14 0 0 0-1.072 3.381 9.5 9.5 0 0 0-.187 1.359c0 7.74 5.319 12.973 10.008 12.973 5.273 0 7.485-4.639 7.485-6.502-.002-5.655-8.089-7.112-9.776-11.707"/><path fill="#fff" d="M36.08 32.604c.136.734.194 1.479.173 2.223 0 1.327-1.492 5.749-6.137 8.084l-.108.055c-1.747.857-3.93 1.42-6.64 1.42-6.354 0-8.779-2.768-12.45-2.768-2.79 0-5.918 1.746-5.918 4.628 0 4.857 5.497 10.145 15.233 10.142 3.303 0 7.484-1.335 10.893-4.056a15.4 15.4 0 0 0 2.047-1.911 16.07 16.07 0 0 0 4.03-8.248c.601-3.211.105-6.937-1.123-9.569"/><path fill="url(#convatec-a)" d="M22.633 41.7c4.283 0 7.755-3.35 7.755-7.485s-3.472-7.487-7.755-7.487-7.755 3.352-7.755 7.487S18.35 41.7 22.633 41.7"/><path fill="url(#convatec-b)" d="M19.99 22h-.492a15.7 15.7 0 0 0-5.59 1.092l-.13.051h-.014c-3.686 1.526-5.706 4.312-6.79 6.762-.5 1.08-.86 2.216-1.072 3.382.562-2.504 3.889-3.317 7.532-3.884 4.945-.77 10.477-1.075 10.477-4.49 0-.82-.3-2.913-3.92-2.913" opacity=".91"/><path fill="url(#convatec-c)" d="M13.435 29.41a5 5 0 0 1-.306-1.73c0-4.605 4.006-5.473 5.948-5.63.318-.027.632-.045.816-.049h.048-.44c-1.919.02-3.815.391-5.59 1.092l-.13.052h-.014c-3.687 1.525-5.706 4.311-6.79 6.762a14 14 0 0 0-1.072 3.381 9.5 9.5 0 0 0-.187 1.359c0 7.74 5.319 12.973 10.008 12.973 5.273 0 7.485-4.639 7.485-6.502-.002-5.655-8.089-7.112-9.776-11.707" opacity=".98"/><path fill="url(#convatec-d)" d="m36.08 32.604-.08-.166c-1.168-2.588-2.84-4.09-4.52-4.09-2.593 0-3.938 1.1-3.938 5.94 0 2.77 1.278 5.868 2.491 8.665 1.098 2.53 2.145 4.816 2.145 6.388 0 1.683-.324 2.263-1.038 2.993a15.4 15.4 0 0 0 2.047-1.911 16.07 16.07 0 0 0 4.03-8.248c.587-3.213.09-6.938-1.137-9.57" opacity=".9"/><path fill="url(#convatec-e)" d="M36.08 32.604c.136.734.194 1.479.173 2.223 0 1.327-1.492 5.749-6.137 8.084l-.108.055c-1.747.857-3.93 1.42-6.64 1.42-6.354 0-8.779-2.768-12.45-2.768-2.79 0-5.918 1.746-5.918 4.628 0 4.857 5.497 10.145 15.233 10.142 3.303 0 7.484-1.335 10.893-4.056a15.4 15.4 0 0 0 2.047-1.911 16.07 16.07 0 0 0 4.03-8.248c.601-3.211.105-6.937-1.123-9.569" opacity=".97"/><path fill="#a3b8d4" d="M75.48 56.354v-2.888h-.723v-.501h.723v-.17q0-.23.053-.452a1.1 1.1 0 0 1 .186-.4.95.95 0 0 1 .356-.281c.175-.078.368-.115.561-.108h.513v.481h-.384a.8.8 0 0 0-.323.06.54.54 0 0 0-.21.165.7.7 0 0 0-.115.247 1.3 1.3 0 0 0-.034.309v.15h1.049v.502h-1.05v2.888zm2.582-1.697a1.74 1.74 0 0 1 .549-1.27c.176-.164.384-.294.612-.382a2.16 2.16 0 0 1 1.53 0c.226.087.432.215.607.379.174.163.313.358.409.573.146.33.185.696.111 1.048a1.76 1.76 0 0 1-.524.925 2 2 0 0 1-.613.382 2.1 2.1 0 0 1-.769.139 2 2 0 0 1-.76-.139 1.9 1.9 0 0 1-.61-.382 1.8 1.8 0 0 1-.404-.57 1.7 1.7 0 0 1-.138-.703m.602 0c-.002.17.03.34.097.498a1.27 1.27 0 0 0 .714.692c.164.065.34.098.517.096.177.002.354-.031.519-.096.158-.062.302-.154.423-.27a1.24 1.24 0 0 0 .386-.92 1.27 1.27 0 0 0-.389-.921 1.3 1.3 0 0 0-.422-.27 1.47 1.47 0 0 0-1.038 0q-.239.095-.42.27a1.3 1.3 0 0 0-.393.921zm6.76-1.692v.512h-.387a1.5 1.5 0 0 0-.493.077 1 1 0 0 0-.627.605 1.4 1.4 0 0 0-.088.524v1.672h-.6v-3.39h.496l.062.525c.133-.158.301-.287.492-.376a1.66 1.66 0 0 1 .731-.15zm3.158 1.947h-1.707q.04.223.157.422a1.3 1.3 0 0 0 .68.545q.222.078.459.078a1.46 1.46 0 0 0 1.06-.419l.342.344a1.8 1.8 0 0 1-.585.405 2.07 2.07 0 0 1-1.578.032 1.9 1.9 0 0 1-.601-.386 1.8 1.8 0 0 1-.4-.57 1.73 1.73 0 0 1-.005-1.38c.094-.219.232-.417.405-.583.172-.165.377-.296.603-.386.238-.095.494-.144.753-.141.23-.004.461.027.683.09q.271.077.496.241c.127.093.232.212.306.348.068.128.103.27.103.414q.002.19-.064.37a.75.75 0 0 1-.205.3q-.16.14-.366.205a1.7 1.7 0 0 1-.536.07m-1.713-.474h1.655a.8.8 0 0 0 .498-.151.45.45 0 0 0 .12-.156.4.4 0 0 0 .037-.19.4.4 0 0 0-.06-.21.6.6 0 0 0-.184-.191 1 1 0 0 0-.314-.137 1.6 1.6 0 0 0-.44-.054 1.34 1.34 0 0 0-1.162.65 1.3 1.3 0 0 0-.15.438m6.624-1.472h.645l-1.52 3.39h-.554l-1.52-3.39h.64L92.34 55.6zm3.587 1.948h-1.707q.04.223.157.422.115.187.29.328.175.139.388.217.223.078.46.078a1.45 1.45 0 0 0 1.06-.419l.343.344a1.7 1.7 0 0 1-.259.22 2 2 0 0 1-.326.185 2.08 2.08 0 0 1-1.58.032 1.83 1.83 0 0 1-1.001-.957 1.7 1.7 0 0 1-.144-.694 1.73 1.73 0 0 1 .544-1.268 1.9 1.9 0 0 1 .603-.386c.238-.095.494-.144.753-.141.23-.004.461.027.683.09.18.05.349.132.498.241.126.093.23.212.304.348.069.128.105.27.105.414q.001.19-.064.37a.76.76 0 0 1-.207.3c-.105.092-.23.162-.364.205a1.7 1.7 0 0 1-.537.07m-1.715-.474h1.656a.8.8 0 0 0 .497-.151.44.44 0 0 0 .157-.346.4.4 0 0 0-.06-.21.6.6 0 0 0-.186-.191 1.1 1.1 0 0 0-.314-.137 1.6 1.6 0 0 0-.44-.054 1.34 1.34 0 0 0-1.163.65 1.2 1.2 0 0 0-.147.439m6.385-1.472v.512h-.387a1.5 1.5 0 0 0-.493.077 1 1 0 0 0-.627.605 1.4 1.4 0 0 0-.088.524v1.672h-.601v-3.39h.494l.063.525c.133-.159.301-.287.492-.376.228-.105.477-.156.729-.15zm6.168 2.643.375.372a1.9 1.9 0 0 1-.618.357 2.13 2.13 0 0 1-1.431-.018 2 2 0 0 1-.627-.371 1.8 1.8 0 0 1-.427-.566 1.64 1.64 0 0 1-.156-.722 1.72 1.72 0 0 1 .548-1.27c.175-.164.383-.294.61-.382.244-.094.504-.142.766-.14.235.001.468.04.69.113.232.08.445.201.628.359l-.371.373a1.2 1.2 0 0 0-.42-.251 1.55 1.55 0 0 0-1.029.001q-.242.09-.428.262c-.123.114-.22.25-.287.4a1.35 1.35 0 0 0 0 1.069c.067.152.167.29.293.403a1.4 1.4 0 0 0 .923.346 1.33 1.33 0 0 0 .961-.336m4.794.747h-.499l-.057-.477q-.142.135-.313.233-.18.106-.375.177a2.5 2.5 0 0 1-.827.145 1.8 1.8 0 0 1-.479-.063 1.1 1.1 0 0 1-.392-.19.9.9 0 0 1-.266-.337 1.14 1.14 0 0 1-.099-.498.7.7 0 0 1 .144-.452 1 1 0 0 1 .385-.286q.264-.115.552-.15.32-.045.643-.043h.221l.259.008.262.007h.235v-.423a.5.5 0 0 0-.072-.248.64.64 0 0 0-.196-.211 1.1 1.1 0 0 0-.325-.15 1.7 1.7 0 0 0-.828-.007q-.166.043-.314.128a.7.7 0 0 0-.214.185.35.35 0 0 0-.081.22h-.608a.8.8 0 0 1 .135-.44c.087-.135.204-.249.342-.335q.231-.146.498-.213.298-.076.606-.075a2.6 2.6 0 0 1 .728.09c.187.05.363.132.519.243.132.093.239.214.314.354a.95.95 0 0 1 .102.426zm-1.864-.385q.204 0 .402-.048a1.7 1.7 0 0 0 .376-.134q.173-.082.314-.207a.7.7 0 0 0 .183-.262v-.47h-.903q-.21 0-.417.023-.195.017-.38.08a.7.7 0 0 0-.277.163.36.36 0 0 0-.107.27.53.53 0 0 0 .237.471.7.7 0 0 0 .26.105q.156.019.312.009m5.551-3.004v.512h-.389a1.5 1.5 0 0 0-.493.077 1 1 0 0 0-.627.605 1.4 1.4 0 0 0-.088.524v1.672h-.6v-3.39h.496l.063.525c.133-.158.301-.287.491-.376.228-.105.479-.157.731-.15zm1.166-1.011a.32.32 0 0 1 .112-.25.42.42 0 0 1 .293-.102.42.42 0 0 1 .296.102.33.33 0 0 1 0 .503.43.43 0 0 1-.299.102.42.42 0 0 1-.289-.102.33.33 0 0 1-.113-.253m.101 4.4v-3.39h.602v3.39zm5.542-1.837v1.837h-.594v-1.828a1.7 1.7 0 0 0-.074-.522.9.9 0 0 0-.209-.359.8.8 0 0 0-.337-.204 1.4 1.4 0 0 0-.458-.067 1.2 1.2 0 0 0-.458.086 1.1 1.1 0 0 0-.621.616 1.2 1.2 0 0 0-.092.483v1.796h-.606v-3.39h.501l.052.462a1.7 1.7 0 0 1 .563-.398q.173-.076.356-.117.19-.044.386-.044.81 0 1.205.417c.262.28.386.689.386 1.232m4.668-1.709h.396v.415h-.278a.7.7 0 0 0-.248.049 1.3 1.3 0 0 0-.212.108q.127.158.198.345a1.16 1.16 0 0 1-.05.904 1.25 1.25 0 0 1-.338.417c-.153.123-.33.217-.519.278a2 2 0 0 1-.67.104 2.2 2.2 0 0 1-.519-.06 2 2 0 0 1-.436-.167.7.7 0 0 0-.116.197.6.6 0 0 0-.036.193.26.26 0 0 0 .058.18q.06.066.147.097a.7.7 0 0 0 .19.038h1.12a2 2 0 0 1 1.053.233.73.73 0 0 1 .367.67.9.9 0 0 1-.132.482 1.2 1.2 0 0 1-.375.378 2 2 0 0 1-.579.244c-.244.06-.497.09-.749.087a4 4 0 0 1-.722-.059 2.1 2.1 0 0 1-.59-.19 1.1 1.1 0 0 1-.398-.332.8.8 0 0 1-.146-.488.6.6 0 0 1 .038-.21 1.1 1.1 0 0 1 .244-.38q.08-.081.168-.15a.57.57 0 0 1-.281-.509.85.85 0 0 1 .108-.409 1.4 1.4 0 0 1 .262-.35 1.3 1.3 0 0 1-.24-.373 1.17 1.17 0 0 1 .035-.947c.08-.16.194-.304.334-.42a1.6 1.6 0 0 1 .518-.285 2 2 0 0 1 .67-.105q.287-.003.564.074.252.067.471.203a1.2 1.2 0 0 1 .279-.175.94.94 0 0 1 .414-.087m-1.397 3.537h-1.098q-.133 0-.262-.02a1 1 0 0 0-.209.236.56.56 0 0 0-.09.313.5.5 0 0 0 .105.325c.077.09.176.161.288.206q.203.082.42.109.254.032.51.031a2.2 2.2 0 0 0 .508-.055q.208-.047.393-.15a.8.8 0 0 0 .25-.225.5.5 0 0 0 .088-.276.4.4 0 0 0-.089-.274.6.6 0 0 0-.228-.15 1.1 1.1 0 0 0-.296-.062 7 7 0 0 0-.29-.008m-1.382-2.235a.76.76 0 0 0 .081.353.9.9 0 0 0 .223.283q.15.124.335.188c.272.09.568.09.84 0q.185-.064.336-.188a.9.9 0 0 0 .222-.283.8.8 0 0 0 .082-.353.75.75 0 0 0-.082-.346.9.9 0 0 0-.222-.282 1.1 1.1 0 0 0-.336-.186 1.3 1.3 0 0 0-.84 0 1.1 1.1 0 0 0-.335.186.9.9 0 0 0-.223.282.74.74 0 0 0-.081.346m-53.378.34h-5.151v.451h5.151zm64.957 0h-5.151v.451h5.151z"/><defs><linearGradient id="convatec-b" x1="8.375" x2="26.398" y1="22.18" y2="40.918" gradientUnits="userSpaceOnUse"><stop stop-color="#a3b8d4"/><stop offset=".27" stop-color="#a3b8d4" stop-opacity=".77"/><stop offset=".76" stop-color="#a3b8d4" stop-opacity=".36"/><stop offset="1" stop-color="#a3b8d4" stop-opacity=".2"/></linearGradient><linearGradient id="convatec-c" x1="2.688" x2="42.417" y1="21.676" y2="62.977" gradientUnits="userSpaceOnUse"><stop stop-color="#a3b8d4"/><stop offset=".37" stop-color="#a3b8d4" stop-opacity=".6"/><stop offset=".8" stop-color="#a3b8d4" stop-opacity=".17"/><stop offset="1" stop-color="#a3b8d4" stop-opacity="0"/></linearGradient><linearGradient id="convatec-d" x1="19.447" x2="55.762" y1="29.082" y2="64.216" gradientUnits="userSpaceOnUse"><stop stop-color="#a3b8d4"/><stop offset=".44" stop-color="#a3b8d4" stop-opacity=".53"/><stop offset=".82" stop-color="#a3b8d4" stop-opacity=".15"/><stop offset="1" stop-color="#a3b8d4" stop-opacity="0"/></linearGradient><linearGradient id="convatec-e" x1="7.239" x2="56.399" y1="29.129" y2="76.689" gradientUnits="userSpaceOnUse"><stop offset=".18" stop-color="#a3b8d4"/><stop offset=".54" stop-color="#a3b8d4" stop-opacity=".53"/><stop offset=".85" stop-color="#a3b8d4" stop-opacity=".15"/><stop offset="1" stop-color="#a3b8d4" stop-opacity="0"/></linearGradient><radialGradient id="convatec-a" cx="0" cy="0" r="1" gradientTransform="matrix(7.6892 0 0 7.42275 24.748 30.073)" gradientUnits="userSpaceOnUse"><stop stop-color="#a3b8d4" stop-opacity=".3"/><stop offset=".22" stop-color="#a3b8d4" stop-opacity=".44"/><stop offset=".67" stop-color="#a3b8d4" stop-opacity=".81"/><stop offset=".9" stop-color="#a3b8d4" stop-opacity=".831"/></radialGradient></defs></svg>