<svg width="96" height="24" viewBox="0 0 96 24" fill="none" xmlns="http://www.w3.org/2000/svg">
<g clip-path="url(#clip0_151_1692)">
<path fill-rule="evenodd" clip-rule="evenodd" d="M8.37695 5.80713H14.9369C18.459 5.80713 19.7849 7.59021 19.58 10.2098C19.2414 14.5346 16.6269 16.9272 13.1589 16.9272H11.408C10.9322 16.9272 10.6121 17.2422 10.4835 18.0956L9.74008 23.0571C9.69097 23.3788 9.52164 23.5651 9.26764 23.5905H5.14607C4.7583 23.5905 4.62114 23.2942 4.72274 22.6524L7.23565 6.74693C7.33386 6.11024 7.68268 5.80713 8.37695 5.80713Z" fill="#A3B8D4"/>
<path fill-rule="evenodd" clip-rule="evenodd" d="M36.857 5.51245C39.0702 5.51245 41.1123 6.71302 40.8329 9.70514C40.4943 13.2611 38.5893 15.2288 35.5836 15.2372H32.9573C32.5796 15.2372 32.3968 15.5454 32.2986 16.177L31.7906 19.4062C31.7144 19.8939 31.4637 20.1344 31.0946 20.1344H28.6511C28.2617 20.1344 28.1262 19.8854 28.2125 19.3283L30.2293 6.38621C30.3292 5.74952 30.568 5.51245 31.0032 5.51245H36.8519H36.857ZM32.8777 12.4416H34.8673C36.1119 12.3941 36.9383 11.5322 37.0212 9.97776C37.072 9.01764 36.4235 8.33015 35.3923 8.33523L33.5194 8.3437L32.8777 12.4416ZM47.4759 19.1438C47.6994 18.9406 47.9263 18.8356 47.8941 19.0862L47.8145 19.6856C47.7739 19.9989 47.8975 20.1648 48.1888 20.1648H50.3596C50.7254 20.1648 50.9032 20.0175 50.9929 19.452L52.3307 11.0564C52.3984 10.6348 52.2951 10.4282 51.9751 10.4282H49.5875C49.3724 10.4282 49.2674 10.5484 49.2115 10.8769L49.1235 11.3934C49.0778 11.6626 48.9542 11.71 48.839 11.4391C48.4343 10.4807 47.4014 10.0506 45.9603 10.0844C42.6126 10.1539 40.3554 12.6956 40.1133 15.9535C39.927 18.4732 41.7321 20.4527 44.1129 20.4527C45.8401 20.4527 46.6123 19.9447 47.4827 19.1488L47.4759 19.1438ZM45.6572 17.8518C44.2162 17.8518 43.2121 16.702 43.4203 15.2931C43.6286 13.8843 44.9765 12.7345 46.4175 12.7345C47.8586 12.7345 48.8627 13.8843 48.6544 15.2931C48.4462 16.702 47.1 17.8518 45.6572 17.8518ZM56.5792 10.4011H54.3779C53.9241 10.4011 53.7395 10.7398 53.8834 11.1563L56.6165 19.159L53.9359 22.9673C53.7107 23.2856 53.8851 23.5752 54.2018 23.5752H56.6757C56.8199 23.5919 56.9659 23.5667 57.0962 23.5028C57.2265 23.4388 57.3356 23.3388 57.4106 23.2145L65.8163 11.158C66.0754 10.7872 65.9535 10.3977 65.5285 10.3977H63.1866C62.7853 10.3977 62.6244 10.5569 62.3941 10.8905L58.8889 15.9705L57.3226 10.8786C57.2312 10.5704 57.0026 10.4011 56.5809 10.4011H56.5792Z" fill="#A3B8D4"/>
<path fill-rule="evenodd" clip-rule="evenodd" d="M74.5607 5.51242C76.7739 5.51242 78.8161 6.713 78.5367 9.70511C78.198 13.2611 76.293 15.2288 73.2874 15.2372H70.6627C70.2851 15.2372 70.1022 15.5454 70.004 16.177L69.496 19.4062C69.4198 19.8939 69.1692 20.1343 68.8 20.1343H66.3566C65.9671 20.1343 65.8316 19.8854 65.918 19.3283L67.9381 6.38279C68.038 5.7461 68.2768 5.50903 68.712 5.50903H74.5607V5.51242ZM70.5814 12.4415H72.5711C73.8157 12.3941 74.642 11.5322 74.725 9.97774C74.7758 9.01762 74.1273 8.33012 73.096 8.3352L71.2232 8.34367L70.5814 12.4415ZM85.1796 19.1437C85.4031 18.9405 85.63 18.8355 85.5979 19.0862L85.5183 19.6856C85.4777 19.9989 85.6013 20.1648 85.8925 20.1648H88.0634C88.4291 20.1648 88.6069 20.0175 88.6967 19.4519L90.0344 11.0564C90.1021 10.6347 89.9988 10.4282 89.6788 10.4282H87.2946C87.0795 10.4282 86.9746 10.5484 86.9187 10.8769L86.8306 11.3934C86.7849 11.6626 86.6613 11.71 86.5461 11.4391C86.1414 10.4807 85.1085 10.0505 83.6675 10.0844C80.3198 10.1538 78.0626 12.6955 77.8204 15.9535C77.6341 18.4732 79.4392 20.4527 81.8201 20.4527C83.5473 20.4527 84.3194 19.9447 85.1898 19.1488L85.1796 19.1437ZM83.3627 17.8517C81.9217 17.8517 80.9175 16.702 81.1258 15.2931C81.3341 13.8843 82.682 12.7345 84.123 12.7345C85.564 12.7345 86.5682 13.8843 86.3599 15.2931C86.1516 16.702 84.8037 17.8517 83.3627 17.8517ZM93.3753 20.1784H90.8692C90.8256 20.1803 90.7821 20.1726 90.7419 20.1558C90.7016 20.139 90.6655 20.1135 90.6363 20.0812C90.607 20.0488 90.5852 20.0104 90.5725 19.9686C90.5598 19.9269 90.5564 19.8829 90.5627 19.8397L92.7641 5.89342C92.7851 5.79824 92.8377 5.71297 92.9133 5.65148C92.9889 5.59 93.0831 5.5559 93.1806 5.55476H95.6867C95.7303 5.55281 95.7738 5.56051 95.8141 5.57731C95.8544 5.59411 95.8904 5.6196 95.9197 5.65195C95.949 5.6843 95.9708 5.72272 95.9835 5.76446C95.9962 5.80621 95.9995 5.85024 95.9932 5.89342L93.7919 19.8397C93.7716 19.9355 93.7192 20.0215 93.6436 20.0837C93.5679 20.1459 93.4733 20.1804 93.3753 20.1817V20.1784Z" fill="#A3B8D4"/>
<path fill-rule="evenodd" clip-rule="evenodd" d="M4.27393 0.33252H10.8407C12.6898 0.33252 14.8843 0.391786 16.3508 1.68718C17.3312 2.55248 17.846 3.92915 17.7274 5.41251C17.3244 10.4265 14.3255 13.2357 10.3022 13.2357H7.06454C6.51251 13.2357 6.14844 13.6015 5.99266 14.5904L5.08842 20.3477C5.02915 20.7202 4.86829 20.9404 4.58042 20.9674H0.528279C0.0795462 20.9674 -0.0796285 20.6288 0.0372114 19.8803L2.94974 1.42641C3.06658 0.684731 3.47467 0.33252 4.27393 0.33252Z" fill="#A3B8D4"/>
<path fill-rule="evenodd" clip-rule="evenodd" d="M6.08752 14.0062L7.23391 6.74692C7.33382 6.11022 7.68264 5.80542 8.37691 5.80542H14.9369C16.0223 5.80542 16.9011 5.97475 17.5886 6.28802C16.9299 10.7516 14.0428 13.2307 10.2633 13.2307H7.03071C6.59722 13.2324 6.27887 13.4491 6.08752 14.0062Z" fill="#A3B8D4"/>
</g>
<defs>
<clipPath id="clip0_151_1692">
<rect width="96" height="23.2579" fill="white" transform="translate(0 0.33252)"/>
</clipPath>
</defs>
</svg>
