<svg xmlns="http://www.w3.org/2000/svg" width="81" height="42" fill="none" viewBox="0 0 81 42"><g fill="#a3b8d4" clip-path="url(#payu-a)"><path d="M80.293 8.667H76.71a.7.7 0 0 1-.502-.214.72.72 0 0 1-.205-.511V4.248a.73.73 0 0 1 .205-.51.7.7 0 0 1 .502-.215h3.583a.7.7 0 0 1 .502.214.72.72 0 0 1 .205.511v3.694c0 .19-.074.373-.207.508a.7.7 0 0 1-.5.212zm-4.774-5.158h-2.437a.48.48 0 0 1-.456-.305.5.5 0 0 1-.036-.189V.495c0-.13.05-.254.14-.345a.48.48 0 0 1 .339-.145H75.5a.48.48 0 0 1 .34.145c.089.091.14.215.14.344v2.521a.5.5 0 0 1-.3.453.5.5 0 0 1-.184.037z"/><path d="M48.783 17.56 44.73 34.132c-1.186 4.857-3.194 6.926-7 7.198h-.274c-.817 0-1.072-.462-1.227-1.205l-.069-.323a1.27 1.27 0 0 1 .082-.984c.188-.254.52-.332 1.036-.374 2.538-.268 3.395-1.464 4.24-4.183a4.4 4.4 0 0 1-1.401.212c-2.788 0-3.532-1.985-4.162-4.382L32.61 17.56a1.4 1.4 0 0 1 .032-1.15 1.3 1.3 0 0 1 1.063-.328h.283c1.05 0 1.456.319 1.73 1.358l3.308 12.425c.429 1.552.858 1.815 1.93 1.815.877 0 1.37-.277 1.753-1.806l2.93-12.434c.232-1.035.643-1.386 1.697-1.386h.315a1.3 1.3 0 0 1 1.068.328 1.4 1.4 0 0 1 .063 1.178m-20.44 8.403h-3.897c-3.13 0-4.353.813-4.353 2.905 0 1.907 1.218 2.835 3.719 2.835 3.787 0 4.531-1.187 4.531-3.232zm-4.531-10.398c5.124 0 7.616 1.926 7.616 5.883v7.129c0 4.095-2.337 5.92-7.584 5.92-4.413 0-6.845-2-6.845-5.634 0-3.745 2.354-5.49 7.406-5.49h3.929v-1.93c0-2.166-1.273-3.048-4.39-3.048a18.4 18.4 0 0 0-3.82.388 2.2 2.2 0 0 1-.538.079.75.75 0 0 1-.684-.342 1.6 1.6 0 0 1-.183-.863v-.287c0-1.01.365-1.255 1.232-1.45a18.3 18.3 0 0 1 3.852-.364zm-9.907 2.401c0 2.983-.744 4.618-4.669 4.618H3.194v-7.716c0-1.067.388-1.464 1.433-1.464h4.614c2.966 0 4.668.748 4.668 4.562zm-4.669-7.65h-5.21C1.24 10.315 0 11.59 0 14.433v18.298c0 1.1.347 1.455 1.42 1.455h.35c1.078 0 1.42-.351 1.42-1.455v-7.115h6.042c5.366 0 7.862-2.429 7.862-7.646s-2.491-7.656-7.858-7.656" opacity=".96"/><path d="M71.987 15.593h3.058a.95.95 0 0 0 .676-.287.97.97 0 0 0 .278-.687V9.636c0-.256-.1-.502-.28-.684a.95.95 0 0 0-.674-.285H70.22a.95.95 0 0 0-.686.279.97.97 0 0 0-.286.69v.693h-.958c-2.177 0-2.99.365-2.99 2.396V25.29a3.6 3.6 0 0 1-.455 1.958c-.594.924-1.771 1.362-3.651 1.385s-3.058-.43-3.65-1.385a3.6 3.6 0 0 1-.457-1.958V12.721c0-2.032-.812-2.396-2.99-2.396h-.684c-2.176 0-2.989.364-2.989 2.396v12.568a9.5 9.5 0 0 0 1.305 5.112c1.662 2.673 4.883 4.095 9.465 4.095h.032c4.563 0 7.799-1.422 9.464-4.095a9.5 9.5 0 0 0 1.296-5.112zm0 0v-2.886c0-1.944-.743-2.364-2.738-2.396v4.303a.98.98 0 0 0 .588.9q.175.073.366.074z" opacity=".92"/></g><defs><clipPath id="payu-a"><path fill="#fff" d="M0 0h81v41.344H0z"/></clipPath></defs></svg>