<svg width="60" height="60" viewBox="0 0 60 60" fill="none" xmlns="http://www.w3.org/2000/svg">
<foreignObject x="-4" y="-4" width="68" height="68"><div xmlns="http://www.w3.org/1999/xhtml" style="backdrop-filter:blur(2px);clip-path:url(#bgblur_0_6637_1447_clip_path);height:100%;width:100%"></div></foreignObject><g data-figma-bg-blur-radius="4">
<rect width="60" height="60" rx="8" fill="#002060"/>
<g clip-path="url(#clip1_6637_1447)">
<path d="M41.3754 28.0314C42.8495 28.0316 44.0546 29.1478 44.1997 30.5698L44.2149 30.8585L43.8081 39.477C43.709 41.5614 42.8428 43.5221 41.3678 44.9971C39.7881 46.5768 37.6876 47.4475 35.4534 47.4465L32.0152 47.4472C29.7777 47.4472 27.675 46.5761 26.0932 44.9944L15.789 34.6902C14.9341 33.8353 14.9342 32.4433 15.789 31.5883C16.9504 30.427 18.816 30.2952 20.129 31.2797L20.1304 31.2811L25.2362 35.0003L25.4351 35.1453V20.0198C25.4351 18.4606 26.7035 17.1924 28.2615 17.1935C29.834 17.1935 31.1016 18.4631 31.1016 20.0198L31.1009 23.893V24.103L31.286 24.0021C31.6866 23.7836 32.1447 23.661 32.6325 23.661C34.0738 23.6599 35.2617 24.73 35.4472 26.1097L35.4713 26.2926L35.6315 26.2029C36.0509 25.9691 36.5235 25.846 37.0036 25.8459C38.4464 25.8459 39.6359 26.9161 39.8189 28.298L39.8424 28.4816L40.004 28.3905C40.4094 28.1606 40.8771 28.0314 41.3754 28.0314ZM42.9208 30.8212C42.917 30.0131 42.2311 29.3285 41.3885 29.3262L41.3878 29.3268C40.9663 29.3269 40.5826 29.4858 40.2933 29.775C40.0043 30.064 39.8445 30.4502 39.8445 30.8591V30.9531C39.8445 31.2656 39.6222 31.5273 39.3273 31.5877L39.1968 31.6008C38.8463 31.6017 38.5582 31.3207 38.549 30.971C38.549 30.9676 38.5487 30.9642 38.5483 30.9607V28.6722C38.5481 27.8298 37.8598 27.1415 37.0174 27.1413C36.1602 27.1413 35.472 27.8273 35.472 28.6729L35.4727 30.9524C35.4727 31.1323 35.4001 31.2943 35.2828 31.4116C35.1612 31.5331 34.9962 31.6016 34.8243 31.6022C34.4674 31.6019 34.1766 31.3114 34.1766 30.9544L34.1773 26.4874C34.1773 25.6446 33.4884 24.9558 32.6457 24.9558C31.7885 24.9558 31.1016 25.6418 31.1016 26.4874V30.9524C31.1016 31.1323 31.029 31.2943 30.9117 31.4116C30.8237 31.4996 30.7105 31.5628 30.5837 31.589L30.4532 31.6022C30.0962 31.602 29.8055 31.3115 29.8055 30.9544L29.8062 20.0198C29.8061 19.5964 29.6345 19.2129 29.3573 18.9357C29.0703 18.6483 28.6808 18.4874 28.2746 18.4868L28.2739 18.4862C27.418 18.4875 26.7305 19.1744 26.7305 20.0198L26.7299 36.4179C26.7299 36.6616 26.5922 36.8854 26.3763 36.9952C26.1577 37.1052 25.8975 37.0848 25.701 36.9414L19.3612 32.3224C18.5512 31.7152 17.4134 31.7953 16.7047 32.504C16.3545 32.8544 16.355 33.4235 16.7054 33.7739L27.0088 44.0773C28.3458 45.4143 30.1243 46.1517 32.0152 46.1517L35.4534 46.151C37.342 46.1509 39.1167 45.4155 40.4515 44.0808C41.6206 42.9116 42.3373 41.3817 42.492 39.7449L42.5155 39.4162L42.9208 30.8281V30.8212Z" fill="white" stroke="#002060" stroke-width="0.25"/>
<path d="M33.0965 15.1961C34.9848 17.0845 35.593 19.9288 34.6453 22.4391C34.519 22.7743 34.1452 22.9426 33.8098 22.8162L33.8091 22.8168C33.5167 22.7082 33.3507 22.4072 33.3989 22.1097L33.4335 21.9827C34.2013 19.9473 33.7106 17.6431 32.1808 16.1131C30.023 13.9553 26.5129 13.9549 24.355 16.1124C22.825 17.6424 22.3338 19.9472 23.1017 21.9827L23.1024 21.982C23.2278 22.3163 23.0585 22.6901 22.724 22.8175C22.4786 22.9087 22.2114 22.8433 22.0376 22.6698C21.9742 22.6064 21.9224 22.5281 21.8884 22.4391C20.9424 19.9279 21.5506 17.0842 23.4387 15.1961C26.101 12.5341 30.4341 12.5341 33.0965 15.1961Z" fill="white" stroke="#002060" stroke-width="0.25"/>
</g>
</g>
<defs>
<clipPath id="bgblur_0_6637_1447_clip_path" transform="translate(4 4)"><rect width="60" height="60" rx="8"/>
</clipPath><clipPath id="clip1_6637_1447">
<rect width="32" height="35" fill="white" transform="translate(14 12.5)"/>
</clipPath>
</defs>
</svg>
