<svg width="60" height="60" viewBox="0 0 60 60" fill="none" xmlns="http://www.w3.org/2000/svg">
<foreignObject x="-4" y="-4" width="68" height="68"><div xmlns="http://www.w3.org/1999/xhtml" style="backdrop-filter:blur(2px);clip-path:url(#bgblur_0_4056_1896_clip_path);height:100%;width:100%"></div></foreignObject><g data-figma-bg-blur-radius="4">
<rect width="60" height="60" rx="8" fill="#002060"/>
<path d="M24.5 32.5V31.5C24.5 29.2909 22.7091 27.5 20.5 27.5C18.2909 27.5 16.5 29.2909 16.5 31.5V41.5C16.5 43.7091 18.2909 45.5 20.5 45.5H21.5C23.1569 45.5 24.5 44.1569 24.5 42.5" stroke="white" stroke-width="1.15" stroke-linecap="round"/>
<path d="M32.5 26.5V25.5C32.5 23.2909 30.7091 21.5 28.5 21.5C26.2909 21.5 24.5 23.2909 24.5 25.5V32.5M32.5 40.5V41.5C32.5 43.7091 30.7091 45.5 28.5 45.5H28C26.067 45.5 24.5 43.933 24.5 42" stroke="white" stroke-width="1.15" stroke-linecap="round" stroke-linejoin="round"/>
<path d="M40.5 20.5V18.5C40.5 16.2909 38.7091 14.5 36.5 14.5C34.2909 14.5 32.5 16.2909 32.5 18.5V25.5M40.5 39V41.5C40.5 43.7091 38.7091 45.5 36.5 45.5C34.2909 45.5 32.5 43.7091 32.5 41.5V40.5" stroke="white" stroke-width="1.15" stroke-linecap="round"/>
<path d="M24.5 42V39.5" stroke="white" stroke-width="1.15" stroke-linecap="round"/>
<path d="M32.5 40.5V33.5" stroke="white" stroke-width="1.15" stroke-linecap="round"/>
<path d="M40.5 40.5L40.5 26.5" stroke="white" stroke-width="1.15" stroke-linecap="round"/>
<path d="M26.3506 38.9248H22.6494L24.5 36.457L26.3506 38.9248Z" stroke="white" stroke-width="1.15" stroke-linecap="round" stroke-linejoin="round"/>
<path d="M34.3506 32.9248H30.6494L32.5 30.457L34.3506 32.9248Z" stroke="white" stroke-width="1.15" stroke-linecap="round" stroke-linejoin="round"/>
<path d="M42.3506 26.9248H38.6494L40.5 24.457L42.3506 26.9248Z" stroke="white" stroke-width="1.15" stroke-linecap="round" stroke-linejoin="round"/>
</g>
<defs>
<clipPath id="bgblur_0_4056_1896_clip_path" transform="translate(4 4)"><rect width="60" height="60" rx="8"/>
</clipPath></defs>
</svg>
